<svg width="55" height="39" viewBox="0 0 55 39" fill="none" xmlns="http://www.w3.org/2000/svg">
<path d="M54.0994 0L29.3915 24.6061C28.7556 25.2382 27.8954 25.593 26.9988 25.593C26.1022 25.593 25.242 25.2382 24.6061 24.6061L0.118788 0.186667C0.0435093 0.463342 0.00359535 0.748441 0 1.03515V34.9745C0 35.8747 0.357575 36.7379 0.994062 37.3744C1.63055 38.0109 2.49381 38.3685 3.39394 38.3685H50.9091C51.8092 38.3685 52.6725 38.0109 53.309 37.3744C53.9455 36.7379 54.303 35.8747 54.303 34.9745V1.03515C54.2895 0.681596 54.2208 0.332327 54.0994 0ZM5.71879 34.9745H3.36V32.5479L15.697 20.3127L18.0897 22.7055L5.71879 34.9745ZM50.8752 34.9745H48.4994L36.1285 22.7055L38.5212 20.3127L50.8582 32.5479L50.8752 34.9745Z" fill="white"/>
</svg>
