<svg width="47" height="47" viewBox="0 0 47 47" fill="none" xmlns="http://www.w3.org/2000/svg">
<path d="M25.7333 0C28.3583 0.007 29.6907 0.021 30.841 0.0536667L31.2937 0.0699999C31.8163 0.0886666 32.332 0.112 32.955 0.14C35.4377 0.256667 37.1317 0.648667 38.618 1.225C40.158 1.81767 41.4553 2.62033 42.7527 3.91533C43.9396 5.08138 44.8578 6.49244 45.443 8.05C46.0193 9.53633 46.4113 11.2303 46.528 13.7153C46.556 14.336 46.5793 14.8517 46.598 15.3767L46.612 15.8293C46.647 16.9773 46.661 18.3097 46.6657 20.9347L46.668 22.6753V25.732C46.6737 27.4339 46.6558 29.1359 46.6143 30.8373L46.6003 31.29C46.5817 31.815 46.5583 32.3307 46.5303 32.9513C46.4137 35.4363 46.017 37.128 45.443 38.6167C44.8578 40.1742 43.9396 41.5853 42.7527 42.7513C41.5866 43.9383 40.1756 44.8564 38.618 45.4417C37.1317 46.018 35.4377 46.41 32.955 46.5267L31.2937 46.5967L30.841 46.6107C29.6907 46.6433 28.3583 46.6597 25.7333 46.6643L23.9927 46.6667H20.9383C19.2356 46.6727 17.5329 46.6548 15.8307 46.613L15.378 46.599C14.8241 46.578 14.2703 46.5539 13.7167 46.5267C11.234 46.41 9.53999 46.018 8.05133 45.4417C6.4946 44.8561 5.08436 43.938 3.91899 42.7513C2.7312 41.5855 1.81225 40.1744 1.22633 38.6167C0.649994 37.1303 0.257994 35.4363 0.141327 32.9513L0.0713271 31.29L0.0596607 30.8373C0.0166482 29.1359 -0.00279835 27.434 0.00132719 25.732V20.9347C-0.00513123 19.2327 0.0119817 17.5308 0.0526607 15.8293L0.068994 15.3767C0.0876606 14.8517 0.110994 14.336 0.138994 13.7153C0.255661 11.2303 0.64766 9.53867 1.22399 8.05C1.81128 6.4918 2.73185 5.08068 3.92133 3.91533C5.08602 2.72895 6.49543 1.81084 8.05133 1.225C9.53999 0.648667 11.2317 0.256667 13.7167 0.14C14.3373 0.112 14.8553 0.0886666 15.378 0.0699999L15.8307 0.0559998C17.5321 0.014543 19.234 -0.00334763 20.936 0.00233316L25.7333 0ZM23.3347 11.6667C20.2405 11.6667 17.273 12.8958 15.0851 15.0838C12.8972 17.2717 11.668 20.2391 11.668 23.3333C11.668 26.4275 12.8972 29.395 15.0851 31.5829C17.273 33.7708 20.2405 35 23.3347 35C26.4289 35 29.3963 33.7708 31.5842 31.5829C33.7722 29.395 35.0013 26.4275 35.0013 23.3333C35.0013 20.2391 33.7722 17.2717 31.5842 15.0838C29.3963 12.8958 26.4289 11.6667 23.3347 11.6667ZM23.3347 16.3333C24.2539 16.3332 25.1642 16.5141 26.0135 16.8657C26.8629 17.2174 27.6346 17.7329 28.2847 18.3828C28.9349 19.0327 29.4506 19.8043 29.8025 20.6535C30.1545 21.5027 30.3357 22.4129 30.3358 23.3322C30.336 24.2514 30.1551 25.1617 29.8034 26.011C29.4518 26.8604 28.9363 27.6321 28.2864 28.2823C27.6365 28.9324 26.8649 29.4481 26.0157 29.8C25.1665 30.152 24.2562 30.3332 23.337 30.3333C21.4805 30.3333 19.7 29.5958 18.3872 28.2831C17.0745 26.9703 16.337 25.1898 16.337 23.3333C16.337 21.4768 17.0745 19.6963 18.3872 18.3836C19.7 17.0708 21.4805 16.3333 23.337 16.3333M35.587 8.16667C34.8134 8.16667 34.0716 8.47396 33.5246 9.02094C32.9776 9.56792 32.6703 10.3098 32.6703 11.0833C32.6703 11.8569 32.9776 12.5987 33.5246 13.1457C34.0716 13.6927 34.8134 14 35.587 14C36.3605 14 37.1024 13.6927 37.6494 13.1457C38.1964 12.5987 38.5037 11.8569 38.5037 11.0833C38.5037 10.3098 38.1964 9.56792 37.6494 9.02094C37.1024 8.47396 36.3605 8.16667 35.587 8.16667Z" fill="white"/>
</svg>
