<svg width="46" height="46" viewBox="0 0 46 46" fill="none" xmlns="http://www.w3.org/2000/svg">
<path d="M40.303 0C41.6392 0 42.9206 0.530775 43.8653 1.47556C44.8101 2.42035 45.3409 3.70175 45.3409 5.03788V40.303C45.3409 41.6392 44.8101 42.9206 43.8653 43.8653C42.9206 44.8101 41.6392 45.3409 40.303 45.3409H5.03788C3.70175 45.3409 2.42035 44.8101 1.47556 43.8653C0.530775 42.9206 0 41.6392 0 40.303V5.03788C0 3.70175 0.530775 2.42035 1.47556 1.47556C2.42035 0.530775 3.70175 0 5.03788 0H40.303ZM39.0436 39.0436V25.6932C39.0436 23.5153 38.1784 21.4266 36.6384 19.8866C35.0984 18.3466 33.0097 17.4814 30.8318 17.4814C28.6907 17.4814 26.197 18.7913 24.9879 20.7561V17.96H17.96V39.0436H24.9879V26.6252C24.9879 24.6856 26.5496 23.0987 28.4892 23.0987C29.4245 23.0987 30.3215 23.4702 30.9828 24.1316C31.6442 24.7929 32.0157 25.6899 32.0157 26.6252V39.0436H39.0436ZM9.77348 14.0053C10.8958 14.0053 11.9722 13.5595 12.7658 12.7658C13.5595 11.9722 14.0053 10.8958 14.0053 9.77348C14.0053 7.43087 12.1161 5.51648 9.77348 5.51648C8.64446 5.51648 7.56167 5.96498 6.76333 6.76333C5.96498 7.56167 5.51648 8.64446 5.51648 9.77348C5.51648 12.1161 7.43087 14.0053 9.77348 14.0053ZM13.2748 39.0436V17.96H6.29735V39.0436H13.2748Z" fill="white"/>
</svg>
