<svg width="63" height="43" viewBox="0 0 63 43" fill="none" xmlns="http://www.w3.org/2000/svg">
<path d="M61.6875 6.59328C61.3291 5.32149 60.6344 4.16984 59.6767 3.25952C58.6905 2.32241 57.4817 1.65207 56.1645 1.31177C51.2347 0.0123996 31.4842 0.0123999 31.4842 0.0123999C23.2505 -0.0788073 15.0189 0.33321 6.83547 1.24615C5.51822 1.61158 4.3117 2.2969 3.32322 3.24115C2.35197 4.17565 1.64847 5.32802 1.28097 6.59065C0.39675 11.3463 -0.0321896 16.1754 -2.61054e-05 21.0124C-0.0315261 25.845 0.396349 30.6724 1.28097 35.4341C1.6406 36.6915 2.34147 37.8386 3.31535 38.7653C4.28922 39.6919 5.50197 40.3613 6.83547 40.7157C11.8308 42.0124 31.4842 42.0124 31.4842 42.0124C39.7284 42.1049 47.9706 41.6929 56.1645 40.7787C57.4817 40.4384 58.6905 39.768 59.6767 38.8309C60.6335 37.9203 61.3272 36.7687 61.6848 35.4971C62.5904 30.7431 63.0308 25.9122 63 21.0728C63.0677 16.2129 62.6278 11.3618 61.6875 6.59328ZM25.2052 30.0004V12.027L41.6377 21.015L25.2052 30.0004Z" fill="white"/>
</svg>
