<svg width="1080" height="367" viewBox="0 0 1080 367" fill="none" xmlns="http://www.w3.org/2000/svg">
<g clip-path="url(#clip0_163_187)">
<g filter="url(#filter0_d_163_187)">
<path d="M361.427 233.816C374.878 236.923 374.156 256.316 360.511 258.414L289.704 269.299C272.079 272.008 274.065 298 291.897 298H300.933C315.312 298 318.832 318.017 305.315 322.921C293.014 327.384 294.481 345.231 307.346 347.626L350.438 355.646C353.471 356.21 356.583 356.204 359.613 355.626L497.639 329.331C507.264 327.498 517.226 328.966 525.912 333.498L560.54 351.565C566.755 354.807 573.66 356.5 580.67 356.5H1055.71C1058.87 356.5 1062 355.864 1064.91 354.629C1072.43 351.44 1077.76 344.589 1079 336.521L1079.2 335.215C1079.73 331.773 1079.56 328.261 1078.7 324.886L1043.46 186.162C1041.52 178.531 1041.69 170.516 1043.95 162.973L1078.25 48.3628C1079.4 44.4926 1079.78 40.4314 1079.36 36.4135C1077.74 20.8333 1064.6 9 1048.94 9H577.419C569.617 9 561.958 11.0978 555.244 15.0738L523.55 33.8444C517.395 37.4895 510.123 38.7678 503.094 37.4404L415.421 20.8828C402.111 18.3692 395.113 36.077 406.545 43.3412C417.376 50.2233 411.746 67.0124 398.955 65.9727L348.226 61.8492C330.223 60.3858 325.755 86.2884 343.208 90.9411L368.617 97.7145C383.4 101.655 379.557 123.604 364.315 122.288L340.93 120.27C329.94 119.321 326.534 134.777 336.904 138.536C347.499 142.377 343.657 158.205 332.48 156.76L300.098 152.574C284.269 150.528 279.451 173.331 294.756 177.862L334.494 189.626C345.013 192.741 342.478 208.3 331.514 207.914C320.21 207.516 318.063 223.801 329.084 226.346L361.427 233.816Z" fill="#E33232" fill-opacity="0.1" shape-rendering="crispEdges"/>
</g>
<g filter="url(#filter1_d_163_187)">
<path d="M732.338 346.22L674.185 333.415L534.472 303.92C531.7 303.335 531.209 299.588 533.737 298.308L651.743 238.577C654.274 237.296 653.778 233.543 651.001 232.963L604.549 223.269C601.789 222.693 601.276 218.972 603.778 217.671L690.341 172.638C690.889 172.353 691.512 172.244 692.124 172.326L743.248 179.177C743.974 179.274 744.709 179.103 745.317 178.696L790.919 148.138C793.221 146.595 792.379 143.022 789.629 142.67L758.461 138.684C755.697 138.33 754.866 134.728 757.196 133.199L800.517 104.785C801.09 104.409 801.774 104.24 802.456 104.308L839.032 107.914C839.863 107.996 840.691 107.727 841.316 107.173L859.151 91.365C861.135 89.6059 860.029 86.3256 857.384 86.1283L835.308 84.4808C832.593 84.2782 831.53 80.8557 833.652 79.1506L857.416 60.0543C858.064 59.5341 858.898 59.3056 859.72 59.423L871.614 61.1221C872.76 61.2858 873.785 60.3966 873.785 59.2389V58.1957C873.785 57.1419 874.338 56.1654 875.241 55.6232L878.897 53.4299C879.143 53.2821 879.41 53.1704 879.688 53.0983L894.074 49.3686L909.976 45.5301L923.685 43.885L939.373 42.8031C939.516 42.7933 939.659 42.7936 939.801 42.8042L954.151 43.8671C954.312 43.879 954.472 43.904 954.629 43.9417L967.84 47.1123C968.014 47.1541 968.184 47.2114 968.348 47.2836L981.56 53.097C981.727 53.1702 981.886 53.2584 982.037 53.3605L995.43 62.4489C996.472 63.1558 996.961 64.4377 996.656 65.659L996.36 66.8415C995.933 68.5505 997.226 70.206 998.987 70.206C1000.81 70.206 1002.11 71.9658 1001.58 73.7062L995.114 94.8168C994.708 96.1417 993.448 97.0165 992.065 96.9332L950.925 94.4549C949.706 94.3815 948.565 95.0538 948.038 96.1551L938.767 115.54C937.849 117.46 939.166 119.699 941.291 119.829L977.865 122.059C979.847 122.18 981.167 124.158 980.517 126.035L967.793 162.795C967.333 164.124 966.01 164.955 964.612 164.793L907.318 158.143C906.249 158.019 905.195 158.477 904.557 159.343L877.898 195.524C876.543 197.363 877.658 199.981 879.923 200.278L937.631 207.847C939.668 208.114 940.84 210.303 939.932 212.146L908.236 276.546C907.643 277.749 906.324 278.413 905.004 278.172L818.865 262.415C817.889 262.236 816.887 262.552 816.19 263.258L735.118 345.397C734.394 346.131 733.344 346.441 732.338 346.22Z" fill="black" stroke="black"/>
<path d="M662.466 236.791C664.378 235.797 666.56 235.447 668.687 235.794L793.807 256.184C801.925 257.507 805.063 267.52 799.153 273.24L732.34 337.897C729.925 340.234 726.497 341.202 723.217 340.473L567.759 305.927C558.645 303.901 557.032 291.598 565.316 287.292L662.466 236.791Z" fill="#FCD544"/>
<path d="M690.06 178.073C691.148 177.5 692.386 177.275 693.606 177.429L785.64 189.05C790.984 189.725 792.801 196.554 788.499 199.795L735.484 239.728C734.159 240.726 732.479 241.131 730.845 240.846L627.922 222.927C622.281 221.944 621.09 214.373 626.157 211.706L690.06 178.073Z" fill="#3B7E2D"/>
<path d="M801.834 145.574C802.618 145.062 803.556 144.841 804.486 144.95L894.772 155.483C897.852 155.843 899.369 159.418 897.488 161.883L871.363 196.115C870.488 197.263 869.062 197.849 867.633 197.651L758.238 182.443C754.576 181.934 753.506 177.155 756.601 175.133L801.834 145.574Z" fill="#FDA83F"/>
<path d="M800.54 108.592C801.099 108.236 801.76 108.074 802.421 108.134L874.158 114.565C876.752 114.798 877.837 117.999 875.92 119.762L847.928 145.496C847.285 146.087 846.417 146.369 845.55 146.268L765.91 136.985C763.107 136.658 762.265 132.992 764.645 131.475L800.54 108.592Z" fill="#B45F87"/>
<path d="M868.762 86.1194C869.169 85.7617 869.703 85.5841 870.242 85.6271L942.089 91.354C943.509 91.4672 944.359 92.9873 943.711 94.2566L931.982 117.246C931.608 117.979 930.823 118.408 930.005 118.328L846.563 110.137C844.822 109.966 844.124 107.801 845.437 106.645L868.762 86.1194Z" fill="#FF6B36"/>
<path d="M858.937 63.5268C859.318 63.2369 859.791 63.0933 860.269 63.1221L918.953 66.6634C920.632 66.7647 921.444 68.7677 920.309 70.0093L906.228 85.4098C905.824 85.8519 905.243 86.0895 904.645 86.0573L839.739 82.5624C837.881 82.4623 837.155 80.1006 838.636 78.9737L858.937 63.5268Z" fill="#715188"/>
<path d="M894.622 52.6588L912.17 48.8204L933.555 46.627L950.793 47.1656C950.999 47.1721 951.204 47.1996 951.404 47.2479L966.74 50.9498C966.916 50.9923 967.088 51.0509 967.254 51.1246L981.559 57.4823C981.726 57.5566 981.886 57.6461 982.037 57.7495L991.926 64.5301C994.446 66.2582 993.071 70.2075 990.023 69.9972L878.443 62.3021C874.991 62.064 874.618 57.1375 877.994 56.3816L894.622 52.6588Z" fill="#F6D84D"/>
<path d="M926.335 68.6711C926.741 68.253 927.31 68.0329 927.892 68.0684L996.21 72.2406C997.522 72.3207 998.401 73.6226 997.986 74.8693L992.175 92.3005C991.885 93.1726 991.037 93.7342 990.121 93.6619L912.573 87.5397C910.885 87.4065 910.116 85.3669 911.296 84.1524L926.335 68.6711Z" fill="#CBDC36"/>
<path d="M882.124 117.766C882.749 117.162 883.604 116.859 884.469 116.935L973.618 124.709C975.556 124.878 976.823 126.818 976.199 128.66L966.133 158.4C965.682 159.734 964.363 160.574 962.963 160.42L857.107 148.771C854.581 148.493 853.523 145.397 855.351 143.632L882.124 117.766Z" fill="#2F6EAB"/>
<path d="M801.699 194.947C802.919 194.071 804.423 193.685 805.914 193.864L927.192 208.458C931.341 208.957 933.721 213.437 931.813 217.154L905.958 267.528C904.76 269.862 902.184 271.147 899.599 270.701L749.713 244.825C744.468 243.919 742.911 237.141 747.235 234.038L801.699 194.947Z" fill="#A02119"/>
<path d="M713.359 112.01L723.614 118.731L706.851 137.241L696.304 129.801L713.359 112.01Z" fill="#A8A6AF"/>
<path d="M723.11 118.517L724.916 119.876L708.964 138.248C708.791 138.446 708.495 138.478 708.285 138.32L706.851 137.24L723.11 118.517Z" fill="#D9D9D9"/>
<path d="M701.871 125.051C701.888 125.034 701.913 125.031 701.933 125.043L705.187 127.003C705.206 127.015 705.232 127.012 705.248 126.996L707.27 124.954C707.287 124.938 707.313 124.935 707.333 124.947L710.063 126.68C710.09 126.697 710.094 126.734 710.071 126.757L708.08 128.767C708.058 128.789 708.062 128.827 708.089 128.844L710.801 130.564C710.828 130.582 710.832 130.619 710.809 130.642L708.803 132.667C708.786 132.683 708.761 132.686 708.741 132.674L705.994 130.931C705.974 130.918 705.946 130.922 705.93 130.94L703.694 133.479C703.678 133.497 703.651 133.501 703.63 133.488L700.899 131.755C700.873 131.739 700.868 131.703 700.889 131.68L703.102 129.166C703.123 129.143 703.117 129.106 703.091 129.09L699.875 127.153C699.847 127.137 699.843 127.098 699.865 127.075L701.871 125.051Z" fill="#891A1D"/>
<path d="M712.844 120.263C713.506 120.543 713.863 121.017 714.015 121.521C714.168 122.029 714.114 122.57 713.943 122.974C713.752 123.427 713.355 123.665 712.824 123.721C712.289 123.777 711.626 123.644 710.94 123.354C710.258 123.066 709.854 122.714 709.681 122.287C709.509 121.864 709.552 121.335 709.834 120.661C710.392 120.032 710.802 119.807 711.222 119.787C711.661 119.765 712.137 119.964 712.844 120.263Z" fill="#FFEFE8" stroke="#891A1D" stroke-width="0.25"/>
<path d="M717.06 117.283C717.689 117.841 717.916 118.261 717.958 118.629C718.001 119.005 717.857 119.353 717.673 119.789C717.47 120.268 717.178 120.546 716.788 120.647C716.39 120.749 715.862 120.674 715.175 120.383C714.493 120.094 713.953 119.684 713.654 119.19C713.361 118.706 713.293 118.13 713.565 117.476C714.11 116.864 714.638 116.68 715.192 116.708C715.76 116.737 716.364 116.989 717.06 117.283Z" fill="#FFEFE8" stroke="#891A1D" stroke-width="0.25"/>
<path d="M584.803 258.126L598.512 270.19L595.222 271.835L582.062 259.223L584.803 258.126Z" fill="#E5A642"/>
<path d="M863.915 46.627L913.267 48.8203L906.687 49.9171L862.27 48.272L863.915 46.627Z" fill="#E5A642"/>
<path d="M720.506 113.709L720.825 113.277C720.983 113.063 721.006 112.778 720.885 112.541C720.851 112.473 720.828 112.401 720.817 112.326L720.575 110.724L720.299 106.557L720.048 104.893C719.872 103.724 719.508 102.591 718.972 101.537L718.503 100.617C718.196 100.015 717.794 99.4658 717.312 98.9913C716.191 97.8868 714.696 97.2428 713.123 97.1864L712.399 97.1604C710.795 97.1029 709.216 97.5716 707.903 98.4952C707.145 99.0289 706.494 99.7012 705.986 100.477L705.139 101.768C704.603 102.586 704.178 103.471 703.876 104.401L703.709 104.914C703.485 105.603 703.33 106.312 703.246 107.032L702.682 111.841L701.632 117.303C701.546 117.752 701.388 118.184 701.164 118.582L700.803 119.227C700.628 119.539 700.364 119.792 700.046 119.954L699.841 120.058C699.329 120.319 698.779 120.495 698.211 120.581C697.643 120.666 697.065 120.66 696.499 120.561L696.003 120.475C695.109 120.319 694.195 120.309 693.297 120.444L692.938 120.498L691.782 120.823C690.798 121.099 689.965 121.755 689.465 122.646C689.341 122.867 689.239 123.1 689.16 123.341L688.75 124.605C688.464 125.484 688.29 126.395 688.233 127.318L687.497 139.071C687.462 139.632 687.47 140.195 687.521 140.755L688.194 148.148C688.229 148.539 688.301 148.926 688.407 149.304C688.794 150.681 689.628 151.889 690.778 152.738L690.976 152.885L692.663 153.94C693.344 154.366 693.975 154.865 694.547 155.428L695.376 156.245C695.894 156.754 696.326 157.344 696.656 157.991C696.969 158.607 696.975 159.333 696.671 159.953L696.169 160.976C696.021 161.278 695.839 161.562 695.628 161.823L694.015 163.812C693.046 165.007 691.836 165.986 690.465 166.685L686.018 168.951C685.487 169.221 684.915 169.404 684.326 169.493C683.779 169.576 683.223 169.576 682.676 169.494L678.836 168.917L663.606 165.599L659.522 164.272C658.808 164.04 658.061 163.925 657.31 163.931C656.439 163.937 655.576 164.107 654.767 164.43L652.632 165.285C651.141 165.881 649.798 166.797 648.699 167.968L648.254 168.442C647.803 168.923 647.395 169.443 647.037 169.997L646.216 171.267C645.747 171.991 645.375 172.774 645.108 173.595C644.586 175.202 644.482 176.917 644.806 178.575L644.834 178.717C644.996 179.545 645.057 180.39 645.016 181.233L644.866 184.38L644.563 189.697C644.477 191.206 644.704 192.718 645.228 194.136L647.688 200.789L648.308 202.505C648.889 204.111 649.087 205.83 648.888 207.526L648.73 208.874L648.681 209.436C648.424 212.374 646.998 215.084 644.724 216.961L644.379 217.245L641.218 220.703L638.134 223.504C637.152 224.397 636.596 225.666 636.606 226.993C636.608 227.237 636.59 227.48 636.554 227.721L636.259 229.688C636.028 231.227 635.466 232.698 634.613 234C633.867 235.137 632.913 236.123 631.801 236.905L630.313 237.952L627.591 239.743C626.646 240.365 625.61 240.837 624.52 241.143L621.955 241.864C621.174 242.083 620.372 242.215 619.563 242.258L616.342 242.429C615.707 242.463 615.076 242.551 614.457 242.694L612.301 243.19C611.424 243.392 610.576 243.701 609.775 244.109L608.05 244.988L606.22 245.92C605.167 246.457 604.207 247.16 603.377 248.002L602.196 249.201L599.798 251.636C598.968 252.478 598.008 253.181 596.955 253.718L595.614 254.401L590.728 256.891L588.71 258.218C587.31 259.139 586.152 260.382 585.331 261.844L584.699 262.971C584.662 263.035 584.618 263.095 584.566 263.147L584.504 263.21C583.91 263.813 584.52 264.809 585.327 264.554C585.369 264.54 585.411 264.523 585.451 264.503L591.873 261.231C592.751 260.783 593.513 260.138 594.098 259.345L594.213 259.189C594.512 258.784 594.871 258.425 595.276 258.126L596.822 256.983C597.152 256.739 597.345 256.353 597.342 255.942C597.34 255.578 597.492 255.229 597.762 254.984L601.966 251.165L603.781 249.18C604.671 248.206 605.729 247.401 606.905 246.802L610.272 245.086C611.074 244.678 611.922 244.369 612.799 244.168L614.955 243.671C615.574 243.529 616.205 243.44 616.839 243.406L620.061 243.235C620.87 243.192 621.672 243.06 622.453 242.841L625.018 242.12C626.108 241.814 627.144 241.342 628.089 240.72L630.811 238.929L632.522 237.725C633.489 237.045 634.34 236.213 635.042 235.262L635.353 234.841C636.367 233.467 637.047 231.876 637.34 230.194L637.768 227.735C637.812 227.479 637.834 227.219 637.832 226.959C637.822 225.655 638.4 224.416 639.406 223.585L641.715 221.68L645.366 217.974L646.785 216.618C648.548 214.933 649.701 212.71 650.063 210.298L650.205 209.354L650.382 208.175C650.723 205.908 650.346 203.591 649.305 201.548L648.665 200.291L646.282 193.847C645.708 192.294 645.492 190.632 645.65 188.984L646.092 184.371L646.055 179.466L646.033 176.652C646.029 176.077 646.076 175.503 646.175 174.936C646.387 173.715 646.835 172.546 647.493 171.495L647.51 171.466C647.963 170.743 648.509 170.081 649.134 169.5L649.987 168.706C650.735 168.009 651.577 167.421 652.488 166.957L652.991 166.7C655.253 165.548 657.845 165.213 660.326 165.754L664.104 166.577L672.457 168.475L678.655 170.135C679.273 170.3 679.903 170.411 680.54 170.467L682.005 170.595C683.79 170.751 685.583 170.403 687.179 169.59L691.031 167.627C692.358 166.951 693.534 166.012 694.488 164.868L695.716 163.394L697.562 160.893C697.786 160.589 697.96 160.251 698.077 159.892L698.48 158.65C698.706 157.954 698.462 157.191 697.873 156.756L695.651 154.811L693.17 152.98C692.851 152.744 692.55 152.487 692.267 152.209C690.941 150.902 690.087 149.191 689.842 147.345L689.041 141.31C688.96 140.7 688.931 140.084 688.953 139.469L689.122 134.751L689.509 126.676C689.533 126.174 689.624 125.677 689.78 125.198L690.094 124.232C690.357 123.423 690.93 122.752 691.687 122.366C691.875 122.271 692.072 122.194 692.275 122.136L693.327 121.841C694.197 121.597 695.121 121.615 695.98 121.895C696.57 122.086 697.193 122.156 697.81 122.1L698.436 122.043C699.336 121.961 700.193 121.619 700.902 121.059C701.624 120.488 702.161 119.717 702.445 118.842L702.912 117.405C703.108 116.801 703.245 116.179 703.319 115.547L703.668 112.569L704.368 107.904L705.194 104.494C705.434 103.498 705.834 102.548 706.378 101.68L706.565 101.38C707.02 100.652 707.598 100.008 708.272 99.4756L708.575 99.2363C709.151 98.7811 709.811 98.4446 710.518 98.246L710.681 98.2002C711.632 97.9332 712.64 97.9535 713.58 98.2587C714.091 98.4248 714.572 98.6723 715.005 98.9917L715.65 99.4678C716.742 100.274 717.632 101.324 718.249 102.534C718.618 103.258 718.884 104.03 719.04 104.828L719.57 107.544L719.798 110.967C719.83 111.447 719.69 111.923 719.404 112.311C719.217 112.565 718.972 112.772 718.691 112.915L718.016 113.259C717.14 113.705 716.408 114.389 715.902 115.231L714.497 117.569C714.195 118.071 714.174 118.693 714.44 119.215L714.476 119.288C714.657 119.643 714.972 119.911 715.351 120.034C715.892 120.21 716.486 120.065 716.886 119.66L719.266 117.243C719.662 116.841 719.882 116.298 719.878 115.734C719.876 115.506 719.911 115.278 719.982 115.061L720.276 114.156C720.328 113.996 720.406 113.845 720.506 113.709Z" fill="#E33232" stroke="#E33232" stroke-width="0.5"/>
<path d="M720.926 120.212L721.223 119.59C721.381 119.261 721.359 118.875 721.166 118.566C720.984 118.275 720.953 117.916 721.083 117.599L721.133 117.477C721.316 117.027 721.75 116.73 722.236 116.722C722.695 116.714 723.111 116.447 723.31 116.032L723.36 115.926C723.589 115.447 724.07 115.138 724.601 115.129L726.06 115.104L726.668 115.093C727.285 115.082 727.888 114.904 728.412 114.577C729.131 114.128 729.991 113.964 730.825 114.116L730.974 114.143C731.306 114.203 731.629 114.307 731.933 114.453L733.424 115.166C734.197 115.536 734.859 116.101 735.347 116.804L735.529 117.068C735.963 117.695 736.201 118.436 736.215 119.198C736.219 119.452 736.198 119.706 736.153 119.956L735.868 121.525L735.645 122.233C735.556 122.516 735.635 122.825 735.849 123.032C736.107 123.282 736.503 123.323 736.808 123.133L737.971 122.407C738.128 122.309 738.295 122.229 738.47 122.167L738.941 122.001C739.979 121.635 740.918 121.032 741.683 120.24L742.424 119.472L744.329 117.499L745.143 116.657C746.115 115.65 746.886 114.467 747.415 113.171L747.73 112.399L747.768 112.318C748.239 111.335 748.864 110.435 749.621 109.651L751.364 107.847C751.725 107.472 752.06 107.073 752.365 106.651L754.179 104.142L754.863 102.955C755.154 102.45 755.302 101.876 755.292 101.293C755.285 100.857 755.366 100.425 755.53 100.022L756.396 97.8987L756.814 97.0249C757.033 96.5675 757.324 96.1485 757.676 95.7838L757.982 95.4677C758.429 95.004 758.73 94.4182 758.845 93.784C758.961 93.1498 759.261 92.564 759.709 92.1003L760.546 91.2336L762.075 89.6504C762.578 89.1293 763.131 88.6592 763.727 88.247L765.131 87.2756L766.534 86.3041C767.13 85.8919 767.683 85.4218 768.186 84.9007L768.682 84.3876C769.115 83.9389 769.492 83.4387 769.803 82.8982L769.835 82.8431C770.251 82.1219 770.54 81.3346 770.688 80.5156C770.774 80.045 770.813 79.5672 770.805 79.089L770.799 78.739C770.793 78.4183 770.81 78.0975 770.85 77.7792L771.039 76.2686C771.098 75.7936 771.31 75.3506 771.643 75.0061C771.808 74.8351 771.945 74.6384 772.047 74.4239L772.413 73.66C772.564 73.3428 772.693 73.0152 772.799 72.6797L772.882 72.4134C773.207 71.3813 773.767 70.4388 774.518 69.6606L776.804 67.2938L778.251 65.7946C778.806 65.22 779.265 64.5598 779.61 63.8393L779.715 63.6188C779.797 63.4484 779.866 63.2724 779.922 63.0922C780.108 62.5009 780.429 61.9609 780.859 61.5151L781.728 60.6152L782.876 59.4265C783.38 58.9054 783.933 58.4353 784.529 58.0231L785.932 57.0516L787.424 56.2728C788.472 55.7257 789.602 55.3511 790.769 55.1635L791.714 55.0117L794.801 54.1822L796.529 53.9045C797.181 53.7998 797.822 53.6367 798.444 53.4171L799.821 52.9312L802.134 52.1152C803.654 51.5786 805.029 50.6953 806.15 49.5352L806.351 49.327L808.085 47.5312L809.779 45.7769L811.684 43.8046L813.207 42.2268L814.731 40.649L816.255 39.0712L816.362 38.9596C817.037 38.2608 817.904 37.7773 818.853 37.5702C819.17 37.5011 819.492 37.4635 819.816 37.4578L820.244 37.4504C820.665 37.443 821.085 37.5037 821.487 37.63C821.86 37.7471 822.213 37.9194 822.535 38.141L823.305 38.6703C824.292 39.3499 825.392 39.8488 826.554 40.1439L829.082 40.7863L829.493 40.9155C830.745 41.3086 832.091 41.2851 833.328 40.8485C833.599 40.753 833.862 40.6385 834.116 40.5057L835.637 39.712C836.412 39.3074 837.253 39.0431 838.12 38.9313C839.537 38.7488 840.977 38.9797 842.266 39.5963L842.637 39.774C843.156 40.0219 843.63 40.3517 844.044 40.7507C844.916 41.5936 846.05 42.1144 847.258 42.2273L848.888 42.3796L849.032 42.3976C850.726 42.6096 852.447 42.4241 854.057 41.8559L856.234 41.088L856.559 40.9732C857.866 40.5121 859.262 40.3616 860.637 40.5336L860.733 40.5455C861.088 40.59 861.447 40.6092 861.805 40.603L862.565 40.5897C863.241 40.5779 863.91 40.7236 864.52 41.0152C864.942 41.2171 865.329 41.4857 865.665 41.8108L866.809 42.9154C867.02 43.1188 867.275 43.2703 867.554 43.358C868.031 43.5078 868.429 43.8411 868.661 44.2844L869.102 45.1292L870.299 47.0473L870.887 48.174C871.029 48.4459 871.213 48.6932 871.434 48.9062L872.028 49.4796C872.192 49.6382 872.287 49.8556 872.291 50.0838L872.291 50.1118C872.301 50.6856 871.746 51.1005 871.199 50.9286C871.161 50.9166 871.124 50.902 871.088 50.8849L870.567 50.6356C869.911 50.3222 869.311 49.9051 868.788 49.4005C868.266 48.8959 867.828 48.3104 867.492 47.6665L867.441 47.5697C867.279 47.2579 867.138 46.9351 867.021 46.6035L866.789 45.9452L866.701 45.5436C866.484 44.5459 865.976 43.635 865.241 42.9257C864.436 42.1483 863.401 41.6529 862.29 41.514L861.28 41.3877C859.501 41.1651 857.695 41.4362 856.059 42.1713L855.866 42.2578L853.002 43.0928C852.086 43.36 851.139 43.5038 850.184 43.5204C849.593 43.5307 849.002 43.4922 848.417 43.4052L846.141 43.0665C845.158 42.9203 844.246 42.4708 843.532 41.7809C842.713 40.9906 841.639 40.5192 840.504 40.4517L839.323 40.3816C837.945 40.2998 836.57 40.594 835.347 41.2328C834.55 41.6486 833.686 41.9202 832.795 42.035L832.281 42.1012C831.207 42.2396 830.118 42.2114 829.052 42.0175L827.896 41.8073C827.147 41.671 826.414 41.4573 825.709 41.1696L824.035 40.4866L821.728 39.2568C820.939 38.8366 820.035 38.6858 819.153 38.8276C818.278 38.9682 817.473 39.3886 816.857 40.0258L814.758 42.1998L811.711 45.3554L809.806 47.3276L807.521 49.6943L805.874 51.3994C804.965 52.341 803.775 52.9622 802.482 53.1699C802.007 53.2464 801.542 53.3794 801.098 53.5661L798.848 54.512C798.228 54.7724 797.586 54.9755 796.93 55.1187L795.985 55.325L793.278 55.76L791.041 56.3608C790.475 56.513 789.921 56.7103 789.386 56.9508L787.496 57.7999L786.735 58.142C785.459 58.7156 784.303 59.5276 783.331 60.5342L783.279 60.5882L782.781 61.1039C782.104 61.8055 781.566 62.63 781.198 63.533C780.829 64.4361 780.292 65.2605 779.614 65.9622L779.497 66.0834L777.593 68.0557L775.867 69.8427C775.242 70.4897 774.699 71.2108 774.25 71.99L773.485 73.3162C772.943 74.2564 772.543 75.2717 772.298 76.329L772.209 76.7161C772.035 77.4687 771.953 78.2399 771.967 79.0124L771.97 79.1917C771.981 79.8451 771.912 80.4973 771.765 81.1339C771.438 82.545 770.734 83.8408 769.728 84.8828L769.302 85.3244C768.835 85.808 768.321 86.2443 767.768 86.6269L766.3 87.6429L765.531 88.123C764.768 88.5991 764.066 89.167 763.442 89.8139L762.097 91.2065L761.397 91.9314C760.599 92.7576 759.939 93.707 759.444 94.7431L759.05 95.5653C758.815 96.0568 758.503 96.5071 758.124 96.899C757.746 97.2909 757.433 97.7412 757.198 98.2327L756.648 99.3826C756.256 100.202 755.999 101.079 755.886 101.98L755.85 102.271C755.761 102.979 755.559 103.668 755.251 104.311C755.063 104.706 754.835 105.08 754.573 105.43L752.315 108.441L751.234 109.56C750.436 110.386 749.776 111.336 749.281 112.372L747.771 114.725L745.957 117.233C745.652 117.655 745.317 118.055 744.956 118.429L743.975 119.445L743.31 120.133C742.489 120.983 741.536 121.696 740.488 122.243L738.996 123.022L737.278 124.094C737.145 124.177 737.003 124.245 736.855 124.297L736.699 124.353C736.205 124.527 735.661 124.476 735.208 124.215L734.939 124.06C734.369 123.731 734.103 123.051 734.3 122.423C734.32 122.359 734.345 122.298 734.373 122.238L734.617 121.729C734.92 121.094 735.072 120.397 735.06 119.693L735.055 119.405C735.044 118.772 734.861 118.153 734.526 117.616C734.084 116.908 733.404 116.382 732.608 116.132L731.501 115.784L730.857 115.667C729.998 115.511 729.117 115.526 728.264 115.712L728.043 115.761C727.765 115.821 727.481 115.855 727.196 115.86L725.324 115.892C724.833 115.901 724.389 116.186 724.178 116.628L724.011 116.976C723.87 117.271 723.934 117.624 724.169 117.851C724.405 118.079 724.468 118.432 724.327 118.727L724.089 119.226C723.914 119.591 723.601 119.872 723.219 120.007L722.955 120.1C722.761 120.169 722.584 120.282 722.441 120.431L721.959 120.929C721.715 121.183 721.311 121.19 721.058 120.945C720.861 120.755 720.807 120.459 720.926 120.212Z" fill="#3267E3" stroke="#3267E3" stroke-width="0.5"/>
</g>
</g>
<defs>
<filter id="filter0_d_163_187" x="271.542" y="3.08443" width="813.902" height="359.331" filterUnits="userSpaceOnUse" color-interpolation-filters="sRGB">
<feFlood flood-opacity="0" result="BackgroundImageFix"/>
<feColorMatrix in="SourceAlpha" type="matrix" values="0 0 0 0 0 0 0 0 0 0 0 0 0 0 0 0 0 0 127 0" result="hardAlpha"/>
<feOffset/>
<feGaussianBlur stdDeviation="2.95778"/>
<feComposite in2="hardAlpha" operator="out"/>
<feColorMatrix type="matrix" values="0 0 0 0 0.713726 0 0 0 0 0.705882 0 0 0 0 0.87451 0 0 0 0.1 0"/>
<feBlend mode="normal" in2="BackgroundImageFix" result="effect1_dropShadow_163_187"/>
<feBlend mode="normal" in="BackgroundImageFix" in2="effect1_dropShadow_163_187" result="BackgroundImageFix"/>
<feBlend mode="normal" in="SourceGraphic" in2="BackgroundImageFix" result="shape"/>
</filter>
<filter id="filter1_d_163_187" x="527.59" y="37.1997" width="478.607" height="317.59" filterUnits="userSpaceOnUse" color-interpolation-filters="sRGB">
<feFlood flood-opacity="0" result="BackgroundImageFix"/>
<feColorMatrix in="SourceAlpha" type="matrix" values="0 0 0 0 0 0 0 0 0 0 0 0 0 0 0 0 0 0 127 0" result="hardAlpha"/>
<feOffset dy="4"/>
<feGaussianBlur stdDeviation="2"/>
<feComposite in2="hardAlpha" operator="out"/>
<feColorMatrix type="matrix" values="0 0 0 0 0 0 0 0 0 0 0 0 0 0 0 0 0 0 0.25 0"/>
<feBlend mode="normal" in2="BackgroundImageFix" result="effect1_dropShadow_163_187"/>
<feBlend mode="normal" in="SourceGraphic" in2="effect1_dropShadow_163_187" result="shape"/>
</filter>
<clipPath id="clip0_163_187">
<rect width="1080" height="367" fill="white"/>
</clipPath>
</defs>
</svg>
