<svg width="244" height="36" viewBox="0 0 244 36" fill="none" xmlns="http://www.w3.org/2000/svg">
<path d="M43.1831 12.8401C43.1831 10.2481 43.0471 7.88009 42.7751 5.73609C42.7751 5.40009 43.0071 5.23209 43.4711 5.23209C43.9351 5.23209 44.5511 5.68009 45.3191 6.57609C46.0871 7.45609 46.8231 8.42409 47.5271 9.48009C48.2311 10.5361 48.9351 11.5121 49.6391 12.4081C50.3591 13.2881 50.8711 13.7281 51.1751 13.7281C51.4791 13.7281 51.9671 13.2641 52.6391 12.3361C53.3271 11.3921 53.9991 10.3681 54.6551 9.26409C55.3271 8.14409 56.0471 7.12009 56.8151 6.19209C57.5991 5.24809 58.2231 4.77609 58.6871 4.77609C59.1671 4.77609 59.4071 4.90409 59.4071 5.16009C59.5511 7.12809 59.6231 8.88809 59.6231 10.4401C59.6231 11.9921 59.6151 13.2561 59.5991 14.2321C59.5831 15.1921 59.5671 15.8961 59.5511 16.3441C59.5511 16.7761 59.5271 17.7761 59.4791 19.3441C59.4311 20.8961 59.4071 21.8081 59.4071 22.0801C59.1671 22.4161 58.8391 22.5841 58.4231 22.5841C58.2471 22.5841 58.0791 22.5361 57.9191 22.4401C57.8231 20.4721 57.7751 18.1521 57.7751 15.4801C57.7751 12.8081 57.7991 10.0401 57.8471 7.17609C57.5271 7.43209 57.0711 8.03209 56.4791 8.97609C55.9031 9.90409 55.3431 10.8321 54.7991 11.7601C54.2551 12.6721 53.6391 13.5041 52.9511 14.2561C52.2631 14.9921 51.6231 15.3601 51.0311 15.3601C50.4391 15.3601 49.7591 14.9281 48.9911 14.0641C48.2391 13.2001 47.3991 12.0321 46.4711 10.5601C45.5591 9.07209 44.9591 8.14409 44.6711 7.77609C44.7511 9.12009 44.7911 10.5201 44.7911 11.9761C44.7911 13.4161 44.7831 14.4241 44.7671 15.0001C44.7511 17.5601 44.7031 19.8881 44.6231 21.9841C44.3671 22.3201 43.9671 22.4881 43.4231 22.4881C43.2791 22.4881 43.1431 22.4641 43.0151 22.4161C43.0151 22.4161 43.0711 19.2241 43.1831 12.8401ZM77.487 22.2721C77.231 22.6241 76.863 22.8001 76.383 22.8001C76.255 22.8001 76.127 22.7841 75.999 22.7521C75.647 21.9521 75.351 20.5361 75.111 18.5041C75.015 17.6081 74.927 16.9281 74.847 16.4641C73.103 16.4001 71.359 16.3681 69.615 16.3681C67.871 16.3681 66.311 16.4401 64.935 16.5841C64.791 17.2401 64.631 18.2241 64.455 19.5361C64.295 20.8321 64.175 21.7041 64.095 22.1521C63.775 22.4081 63.415 22.5361 63.015 22.5361C62.871 22.5361 62.711 22.4721 62.535 22.3441C62.583 21.9601 62.711 20.8561 62.919 19.0321C63.127 17.1921 63.399 15.4641 63.735 13.8481C64.519 10.1841 65.679 7.70409 67.215 6.40809C68.207 5.59209 69.319 5.18409 70.551 5.18409C71.655 5.18409 72.591 5.63209 73.359 6.52809C74.143 7.42409 74.735 8.60009 75.135 10.0561C75.535 11.5121 75.855 12.9761 76.095 14.4481C76.335 15.9201 76.567 17.4241 76.791 18.9601C77.015 20.4961 77.247 21.6001 77.487 22.2721ZM70.071 6.45609C69.367 6.45609 68.687 6.80009 68.031 7.48809C67.375 8.17609 66.855 9.03209 66.471 10.0561C65.783 11.9601 65.351 13.7201 65.175 15.3361C66.775 15.1601 68.383 15.0721 69.999 15.0721C71.615 15.0721 73.175 15.1201 74.679 15.2161C74.615 14.9761 74.495 14.4081 74.319 13.5121C74.143 12.6161 73.959 11.8321 73.767 11.1601C73.591 10.4721 73.343 9.73609 73.023 8.95209C72.719 8.16809 72.327 7.56009 71.847 7.12809C71.367 6.68009 70.775 6.45609 70.071 6.45609ZM66.807 3.12009C67.351 2.70409 68.159 2.16009 69.231 1.48809C70.319 0.800089 70.975 0.384089 71.199 0.240089C71.423 0.0800891 71.639 8.91685e-05 71.847 8.91685e-05C72.071 8.91685e-05 72.319 0.048089 72.591 0.144089C72.879 0.224089 73.023 0.328089 73.023 0.456089C73.023 0.552089 72.927 0.664089 72.735 0.792089C72.559 0.920089 71.927 1.33609 70.839 2.04009C69.751 2.72809 68.935 3.28009 68.391 3.69609C68.263 3.79209 68.095 3.84009 67.887 3.84009C67.679 3.84009 67.423 3.79209 67.119 3.69609C66.815 3.60009 66.663 3.48809 66.663 3.36009C66.663 3.29609 66.711 3.21609 66.807 3.12009ZM81.647 6.24009C82.255 5.84009 82.919 5.54409 83.639 5.35209C84.359 5.16009 85.071 5.06409 85.775 5.06409C86.479 5.06409 87.135 5.11209 87.743 5.20809C88.367 5.28809 88.999 5.43209 89.639 5.64009C90.295 5.84809 90.831 6.16809 91.247 6.60009C91.663 7.03209 91.895 7.54409 91.943 8.13609C91.959 8.37609 91.863 8.56009 91.655 8.68809C91.463 8.80009 91.239 8.85609 90.983 8.85609C90.743 8.85609 90.559 8.80009 90.431 8.68809C90.319 8.56009 90.207 8.37609 90.095 8.13609C89.487 6.90409 88.159 6.28809 86.111 6.28809C84.719 6.28809 83.575 6.58409 82.679 7.17609C81.799 7.76809 81.359 8.63209 81.359 9.76809C81.359 10.4081 81.559 10.9601 81.959 11.4241C82.359 11.8721 82.879 12.2241 83.519 12.4801C84.175 12.7361 84.887 12.9681 85.655 13.1761C86.439 13.3841 87.215 13.6161 87.983 13.8721C88.767 14.1281 89.479 14.4321 90.119 14.7841C90.775 15.1361 91.303 15.6321 91.703 16.2721C92.103 16.8961 92.303 17.6481 92.303 18.5281C92.303 19.8081 91.671 20.8961 90.407 21.7921C89.159 22.6881 87.583 23.1361 85.679 23.1361C84.207 23.1361 82.767 22.8241 81.359 22.2001C79.951 21.5761 79.247 20.9361 79.247 20.2801C79.247 20.1041 79.351 19.9441 79.559 19.8001C79.767 19.6401 79.967 19.5601 80.159 19.5601C80.367 19.5601 80.559 19.6241 80.735 19.7521C80.911 19.8641 81.111 20.0241 81.335 20.2321C81.559 20.4401 81.759 20.6001 81.935 20.7121C83.151 21.4801 84.511 21.8641 86.015 21.8641C87.071 21.8641 88.103 21.5441 89.111 20.9041C90.119 20.2481 90.623 19.3761 90.623 18.2881C90.623 17.5521 90.351 16.9441 89.807 16.4641C89.263 15.9681 88.583 15.6161 87.767 15.4081C86.951 15.1841 86.063 14.9361 85.103 14.6641C84.159 14.3921 83.279 14.1121 82.463 13.8241C81.647 13.5361 80.967 13.0721 80.423 12.4321C79.879 11.7921 79.607 11.0321 79.607 10.1521C79.607 9.25609 79.791 8.48009 80.159 7.82409C80.543 7.15209 81.039 6.62409 81.647 6.24009ZM100.98 12.8401C100.98 10.2481 100.844 7.88009 100.572 5.73609C100.572 5.40009 100.804 5.23209 101.268 5.23209C101.732 5.23209 102.348 5.68009 103.116 6.57609C103.884 7.45609 104.62 8.42409 105.324 9.48009C106.028 10.5361 106.732 11.5121 107.436 12.4081C108.156 13.2881 108.668 13.7281 108.972 13.7281C109.276 13.7281 109.764 13.2641 110.436 12.3361C111.124 11.3921 111.796 10.3681 112.452 9.26409C113.124 8.14409 113.844 7.12009 114.612 6.19209C115.396 5.24809 116.02 4.77609 116.484 4.77609C116.964 4.77609 117.204 4.90409 117.204 5.16009C117.348 7.12809 117.42 8.88809 117.42 10.4401C117.42 11.9921 117.412 13.2561 117.396 14.2321C117.38 15.1921 117.364 15.8961 117.348 16.3441C117.348 16.7761 117.324 17.7761 117.276 19.3441C117.228 20.8961 117.204 21.8081 117.204 22.0801C116.964 22.4161 116.636 22.5841 116.22 22.5841C116.044 22.5841 115.876 22.5361 115.716 22.4401C115.62 20.4721 115.572 18.1521 115.572 15.4801C115.572 12.8081 115.596 10.0401 115.644 7.17609C115.324 7.43209 114.868 8.03209 114.276 8.97609C113.7 9.90409 113.14 10.8321 112.596 11.7601C112.052 12.6721 111.436 13.5041 110.748 14.2561C110.06 14.9921 109.42 15.3601 108.828 15.3601C108.236 15.3601 107.556 14.9281 106.788 14.0641C106.036 13.2001 105.196 12.0321 104.268 10.5601C103.356 9.07209 102.756 8.14409 102.468 7.77609C102.548 9.12009 102.588 10.5201 102.588 11.9761C102.588 13.4161 102.58 14.4241 102.564 15.0001C102.548 17.5601 102.5 19.8881 102.42 21.9841C102.164 22.3201 101.764 22.4881 101.22 22.4881C101.076 22.4881 100.94 22.4641 100.812 22.4161C100.812 22.4161 100.868 19.2241 100.98 12.8401ZM123.332 5.49609C123.172 12.7281 123.084 18.3761 123.068 22.4401C122.828 22.6961 122.612 22.8241 122.42 22.8241C122.244 22.8241 122.092 22.7841 121.964 22.7041C121.596 22.4641 121.412 22.0161 121.412 21.3601C121.444 13.6641 121.5 9.16009 121.58 7.84809C121.66 6.53609 121.78 5.77609 121.94 5.56809C122.1 5.36009 122.292 5.25609 122.516 5.25609C122.74 5.25609 123.012 5.33609 123.332 5.49609ZM129.071 5.44809L129.143 11.0881C129.143 11.8881 129.119 12.6641 129.071 13.4161C130.479 12.8561 131.727 12.1921 132.815 11.4241C133.919 10.6401 134.767 9.90409 135.359 9.21609C135.951 8.51209 136.463 7.85609 136.895 7.24809C137.343 6.62409 137.727 6.12809 138.047 5.76009C138.383 5.39209 138.695 5.20809 138.983 5.20809C139.271 5.20809 139.551 5.31209 139.823 5.52009C139.167 7.16809 138.239 8.59209 137.039 9.79209C135.855 10.9761 134.351 12.1841 132.527 13.4161C133.375 13.8481 134.175 14.4641 134.927 15.2641C135.695 16.0481 136.327 16.8241 136.823 17.5921C138.215 19.7201 139.519 21.2401 140.735 22.1521C140.463 22.5681 140.063 22.7761 139.535 22.7761C139.023 22.7761 138.399 22.3681 137.663 21.5521C136.927 20.7201 136.247 19.8001 135.623 18.7921C134.999 17.7841 134.287 16.8081 133.487 15.8641C132.687 14.9041 131.951 14.3281 131.279 14.1361C131.151 14.1841 130.823 14.3361 130.295 14.5921C129.783 14.8321 129.375 15.0001 129.071 15.0961C129.071 17.8001 129.031 20.0721 128.951 21.9121C128.663 22.2001 128.143 22.3441 127.391 22.3441C127.359 21.8641 127.343 20.7681 127.343 19.0561L127.439 5.92809C127.631 5.57609 127.991 5.40009 128.519 5.40009C128.695 5.40009 128.879 5.41609 129.071 5.44809ZM156.589 22.2721C156.333 22.6241 155.965 22.8001 155.485 22.8001C155.357 22.8001 155.229 22.7841 155.101 22.7521C154.749 21.9521 154.485 20.8241 154.309 19.3681C154.149 17.8961 154.029 16.9281 153.949 16.4641C152.205 16.4001 150.461 16.3681 148.717 16.3681C146.973 16.3681 145.413 16.4401 144.037 16.5841C143.893 17.2401 143.733 18.2241 143.557 19.5361C143.397 20.8321 143.277 21.7041 143.197 22.1521C142.621 22.6161 142.101 22.6801 141.637 22.3441C141.685 21.9601 141.757 21.3521 141.853 20.5201C141.949 19.6881 142.029 18.9841 142.093 18.4081C142.173 17.8161 142.285 17.0721 142.429 16.1761C142.573 15.2801 142.709 14.5121 142.837 13.8721C142.981 13.2161 143.173 12.4881 143.413 11.6881C143.653 10.8721 143.901 10.1761 144.157 9.60009C144.413 9.02409 144.725 8.44009 145.093 7.84809C145.477 7.25609 145.885 6.77609 146.317 6.40809C147.309 5.59209 148.389 5.18409 149.557 5.18409C150.725 5.18409 151.693 5.63209 152.461 6.52809C153.245 7.42409 153.837 8.60009 154.237 10.0561C154.637 11.5121 154.957 12.9761 155.197 14.4481C155.437 15.9201 155.669 17.4241 155.893 18.9601C156.117 20.4961 156.349 21.6001 156.589 22.2721ZM152.125 8.95209C151.821 8.16809 151.429 7.56009 150.949 7.12809C150.469 6.68009 149.877 6.45609 149.173 6.45609C148.469 6.45609 147.789 6.80009 147.133 7.48809C146.477 8.17609 145.957 9.03209 145.573 10.0561C144.885 11.9601 144.453 13.7201 144.277 15.3361C145.877 15.1601 147.485 15.0721 149.101 15.0721C150.717 15.0721 152.277 15.1201 153.781 15.2161C153.717 14.9761 153.597 14.4081 153.421 13.5121C153.245 12.6161 153.061 11.8321 152.869 11.1601C152.693 10.4721 152.445 9.73609 152.125 8.95209ZM165.381 5.16009L169.077 5.23209C170.309 5.23209 171.157 5.37609 171.621 5.66409C171.573 6.11209 171.405 6.40809 171.117 6.55209C170.829 6.69609 170.413 6.76809 169.869 6.76809L164.685 6.69609C163.373 6.69609 162.269 6.73609 161.373 6.81609C161.197 7.71209 161.109 9.00009 161.109 10.6801L161.133 11.7601C161.133 12.2241 161.125 12.7201 161.109 13.2481C161.845 13.3761 162.805 13.4401 163.989 13.4401L166.845 13.4161C167.933 13.4161 168.557 13.4721 168.717 13.5841C168.877 13.6961 168.957 13.8161 168.957 13.9441C168.957 14.5521 168.181 14.8561 166.629 14.8561L161.181 14.6881C161.165 15.0721 161.149 15.7281 161.133 16.6561C161.101 18.5921 161.029 20.0561 160.917 21.0481C161.941 21.1121 162.677 21.1441 163.125 21.1441C163.573 21.1441 164.037 21.1361 164.517 21.1201C164.997 21.1041 165.893 21.0561 167.205 20.9761C168.517 20.8961 169.493 20.8561 170.133 20.8561C170.789 20.8561 171.237 20.9041 171.477 21.0001C171.717 21.0801 171.837 21.2721 171.837 21.5761C171.837 21.7681 171.781 21.9041 171.669 21.9841C171.573 22.0481 171.485 22.1041 171.405 22.1521C171.325 22.1841 171.221 22.2161 171.093 22.2481C170.981 22.2641 170.877 22.2801 170.781 22.2961C170.701 22.3121 170.581 22.3281 170.421 22.3441C170.277 22.3441 170.157 22.3521 170.061 22.3681C169.981 22.3681 169.869 22.3681 169.725 22.3681H169.389C166.253 22.5121 164.245 22.5841 163.365 22.5841C160.725 22.5841 159.405 22.2161 159.405 21.4801C159.373 19.9921 159.357 18.5761 159.357 17.2321C159.357 12.8001 159.501 9.11209 159.789 6.16809C160.125 5.64009 161.101 5.33609 162.717 5.25609C163.725 5.19209 164.613 5.16009 165.381 5.16009ZM176.322 6.04809L176.202 16.6801C176.202 18.3281 176.25 19.8881 176.346 21.3601C177.306 21.4241 178.178 21.4561 178.962 21.4561L184.002 21.3601C184.786 21.3601 185.178 21.5841 185.178 22.0321C185.178 22.5601 183.498 22.8241 180.138 22.8241C179.322 22.8241 178.274 22.7841 176.994 22.7041C175.714 22.6241 174.938 22.4961 174.666 22.3201C174.586 20.6241 174.546 17.8561 174.546 14.0161L174.666 5.56809C175.082 5.24809 175.418 5.08809 175.674 5.08809C176.106 5.08809 176.322 5.40809 176.322 6.04809ZM201.214 22.2721C200.958 22.6241 200.59 22.8001 200.11 22.8001C199.982 22.8001 199.854 22.7841 199.726 22.7521C199.374 21.9521 199.11 20.8241 198.934 19.3681C198.774 17.8961 198.654 16.9281 198.574 16.4641C196.83 16.4001 195.086 16.3681 193.342 16.3681C191.598 16.3681 190.038 16.4401 188.662 16.5841C188.518 17.2401 188.358 18.2241 188.182 19.5361C188.022 20.8321 187.902 21.7041 187.822 22.1521C187.246 22.6161 186.726 22.6801 186.262 22.3441C186.31 21.9601 186.382 21.3521 186.478 20.5201C186.574 19.6881 186.654 18.9841 186.718 18.4081C186.798 17.8161 186.91 17.0721 187.054 16.1761C187.198 15.2801 187.334 14.5121 187.462 13.8721C187.606 13.2161 187.798 12.4881 188.038 11.6881C188.278 10.8721 188.526 10.1761 188.782 9.60009C189.038 9.02409 189.35 8.44009 189.718 7.84809C190.102 7.25609 190.51 6.77609 190.942 6.40809C191.934 5.59209 193.014 5.18409 194.182 5.18409C195.35 5.18409 196.318 5.63209 197.086 6.52809C197.87 7.42409 198.462 8.60009 198.862 10.0561C199.262 11.5121 199.582 12.9761 199.822 14.4481C200.062 15.9201 200.294 17.4241 200.518 18.9601C200.742 20.4961 200.974 21.6001 201.214 22.2721ZM196.75 8.95209C196.446 8.16809 196.054 7.56009 195.574 7.12809C195.094 6.68009 194.502 6.45609 193.798 6.45609C193.094 6.45609 192.414 6.80009 191.758 7.48809C191.102 8.17609 190.582 9.03209 190.198 10.0561C189.51 11.9601 189.078 13.7201 188.902 15.3361C190.502 15.1601 192.11 15.0721 193.726 15.0721C195.342 15.0721 196.902 15.1201 198.406 15.2161C198.342 14.9761 198.222 14.4081 198.046 13.5121C197.87 12.6161 197.686 11.8321 197.494 11.1601C197.318 10.4721 197.07 9.73609 196.75 8.95209Z" fill="white"/>
<g filter="url(#filter0_d_104_86)">
<path d="M203.711 8.85868C275.437 2.54619 214.992 16.2066 153.791 21.8402C101.256 26.6762 -57.5682 30.3895 35.8465 18.2366" stroke="white" stroke-opacity="0.8" shape-rendering="crispEdges"/>
</g>
<defs>
<filter id="filter0_d_104_86" x="0" y="2.22803" width="243.274" height="33.1812" filterUnits="userSpaceOnUse" color-interpolation-filters="sRGB">
<feFlood flood-opacity="0" result="BackgroundImageFix"/>
<feColorMatrix in="SourceAlpha" type="matrix" values="0 0 0 0 0 0 0 0 0 0 0 0 0 0 0 0 0 0 127 0" result="hardAlpha"/>
<feOffset dy="2"/>
<feGaussianBlur stdDeviation="3.25"/>
<feComposite in2="hardAlpha" operator="out"/>
<feColorMatrix type="matrix" values="0 0 0 0 1 0 0 0 0 1 0 0 0 0 1 0 0 0 0.25 0"/>
<feBlend mode="normal" in2="BackgroundImageFix" result="effect1_dropShadow_104_86"/>
<feBlend mode="normal" in="SourceGraphic" in2="effect1_dropShadow_104_86" result="shape"/>
</filter>
</defs>
</svg>
